%TF.GenerationSoftware,KiCad,Pcbnew,8.0.5*%
%TF.CreationDate,2025-02-28T15:20:49+09:00*%
%TF.ProjectId,PCB_Sim,5043425f-5369-46d2-9e6b-696361645f70,rev?*%
%TF.SameCoordinates,Original*%
%TF.FileFunction,Copper,L2,Bot*%
%TF.FilePolarity,Positive*%
%FSLAX46Y46*%
G04 Gerber Fmt 4.6, Leading zero omitted, Abs format (unit mm)*
G04 Created by KiCad (PCBNEW 8.0.5) date 2025-02-28 15:20:49*
%MOMM*%
%LPD*%
G01*
G04 APERTURE LIST*
G04 Aperture macros list*
%AMRoundRect*
0 Rectangle with rounded corners*
0 $1 Rounding radius*
0 $2 $3 $4 $5 $6 $7 $8 $9 X,Y pos of 4 corners*
0 Add a 4 corners polygon primitive as box body*
4,1,4,$2,$3,$4,$5,$6,$7,$8,$9,$2,$3,0*
0 Add four circle primitives for the rounded corners*
1,1,$1+$1,$2,$3*
1,1,$1+$1,$4,$5*
1,1,$1+$1,$6,$7*
1,1,$1+$1,$8,$9*
0 Add four rect primitives between the rounded corners*
20,1,$1+$1,$2,$3,$4,$5,0*
20,1,$1+$1,$4,$5,$6,$7,0*
20,1,$1+$1,$6,$7,$8,$9,0*
20,1,$1+$1,$8,$9,$2,$3,0*%
G04 Aperture macros list end*
%TA.AperFunction,ComponentPad*%
%ADD10RoundRect,0.250000X-0.600000X-0.725000X0.600000X-0.725000X0.600000X0.725000X-0.600000X0.725000X0*%
%TD*%
%TA.AperFunction,ComponentPad*%
%ADD11O,1.700000X1.950000*%
%TD*%
%TA.AperFunction,ComponentPad*%
%ADD12RoundRect,0.250000X-0.750000X0.600000X-0.750000X-0.600000X0.750000X-0.600000X0.750000X0.600000X0*%
%TD*%
%TA.AperFunction,ComponentPad*%
%ADD13O,2.000000X1.700000*%
%TD*%
%TA.AperFunction,ComponentPad*%
%ADD14RoundRect,0.328084X1.171916X0.671916X-1.171916X0.671916X-1.171916X-0.671916X1.171916X-0.671916X0*%
%TD*%
%TA.AperFunction,ComponentPad*%
%ADD15RoundRect,0.328084X0.671916X1.921916X-0.671916X1.921916X-0.671916X-1.921916X0.671916X-1.921916X0*%
%TD*%
%TA.AperFunction,ComponentPad*%
%ADD16O,1.700000X1.700000*%
%TD*%
%TA.AperFunction,ComponentPad*%
%ADD17R,1.700000X1.700000*%
%TD*%
%TA.AperFunction,ComponentPad*%
%ADD18RoundRect,0.250000X0.725000X-0.600000X0.725000X0.600000X-0.725000X0.600000X-0.725000X-0.600000X0*%
%TD*%
%TA.AperFunction,ComponentPad*%
%ADD19O,1.950000X1.700000*%
%TD*%
%TA.AperFunction,ViaPad*%
%ADD20C,0.600000*%
%TD*%
%TA.AperFunction,Conductor*%
%ADD21C,0.200000*%
%TD*%
G04 APERTURE END LIST*
D10*
%TO.P,J3,1,Pin_1*%
%TO.N,/GND*%
X134700000Y-116840000D03*
D11*
%TO.P,J3,2,Pin_2*%
%TO.N,/CLK2*%
X137200000Y-116840000D03*
%TO.P,J3,3,Pin_3*%
%TO.N,/DAT2*%
X139700000Y-116840000D03*
%TO.P,J3,4,Pin_4*%
%TO.N,/5V*%
X142200000Y-116840000D03*
%TD*%
D12*
%TO.P,J6,1,Pin_1*%
%TO.N,/SPK-*%
X109220000Y-101640000D03*
D13*
%TO.P,J6,2,Pin_2*%
%TO.N,/SPK+*%
X109220000Y-104140000D03*
%TD*%
D14*
%TO.P,PAM1,1,+V*%
%TO.N,/5V*%
X127000000Y-106680000D03*
%TO.P,PAM1,2,GND*%
%TO.N,/GND*%
X127000000Y-104140000D03*
%TO.P,PAM1,3,in+*%
%TO.N,Net-(PAM1-in+)*%
X127000000Y-101600000D03*
%TO.P,PAM1,4,in-*%
%TO.N,/GND*%
X127000000Y-99060000D03*
D15*
%TO.P,PAM1,5,SPK+*%
%TO.N,/SPK+*%
X119600000Y-105630000D03*
%TO.P,PAM1,6,SPK-*%
%TO.N,/SPK-*%
X119600000Y-100130000D03*
%TD*%
D10*
%TO.P,J5,1,Pin_1*%
%TO.N,/GND*%
X175340000Y-116840000D03*
D11*
%TO.P,J5,2,Pin_2*%
%TO.N,/CLK4*%
X177840000Y-116840000D03*
%TO.P,J5,3,Pin_3*%
%TO.N,/DAT4*%
X180340000Y-116840000D03*
%TO.P,J5,4,Pin_4*%
%TO.N,/5V*%
X182840000Y-116840000D03*
%TD*%
D10*
%TO.P,J2,1,Pin_1*%
%TO.N,/GND*%
X114380000Y-116840000D03*
D11*
%TO.P,J2,2,Pin_2*%
%TO.N,/CLK1*%
X116880000Y-116840000D03*
%TO.P,J2,3,Pin_3*%
%TO.N,/DAT1*%
X119380000Y-116840000D03*
%TO.P,J2,4,Pin_4*%
%TO.N,/5V*%
X121880000Y-116840000D03*
%TD*%
D10*
%TO.P,J4,1,Pin_1*%
%TO.N,/GND*%
X155020000Y-116840000D03*
D11*
%TO.P,J4,2,Pin_2*%
%TO.N,/CLK3*%
X157520000Y-116840000D03*
%TO.P,J4,3,Pin_3*%
%TO.N,/DAT3*%
X160020000Y-116840000D03*
%TO.P,J4,4,Pin_4*%
%TO.N,/5V*%
X162520000Y-116840000D03*
%TD*%
D16*
%TO.P,U1,1,GPIO0*%
%TO.N,unconnected-(U1-GPIO0-Pad1)*%
X106680000Y-83820000D03*
%TO.P,U1,2,GPIO1*%
%TO.N,unconnected-(U1-GPIO1-Pad2)_1*%
X109220000Y-83820000D03*
D17*
%TO.P,U1,3,GND*%
%TO.N,unconnected-(U1-GND-Pad3)_1*%
X111760000Y-83820000D03*
D16*
%TO.P,U1,4,GPIO2*%
%TO.N,/CLK1*%
X114300000Y-83820000D03*
%TO.P,U1,5,GPIO3*%
%TO.N,/DAT1*%
X116840000Y-83820000D03*
%TO.P,U1,6,GPIO4*%
%TO.N,/CLK2*%
X119380000Y-83820000D03*
%TO.P,U1,7,GPIO5*%
%TO.N,/DAT2*%
X121920000Y-83820000D03*
D17*
%TO.P,U1,8,GND*%
%TO.N,unconnected-(U1-GND-Pad8)*%
X124460000Y-83820000D03*
D16*
%TO.P,U1,9,GPIO6*%
%TO.N,/CLK3*%
X127000000Y-83820000D03*
%TO.P,U1,10,GPIO7*%
%TO.N,/DAT3*%
X129540000Y-83820000D03*
%TO.P,U1,11,GPIO8*%
%TO.N,/CLK4*%
X132080000Y-83820000D03*
%TO.P,U1,12,GPIO9*%
%TO.N,/DAT4*%
X134620000Y-83820000D03*
D17*
%TO.P,U1,13,GND*%
%TO.N,unconnected-(U1-GND-Pad13)*%
X137160000Y-83820000D03*
D16*
%TO.P,U1,14,GPIO10*%
%TO.N,unconnected-(U1-GPIO10-Pad14)_1*%
X139700000Y-83820000D03*
%TO.P,U1,15,GPIO11*%
%TO.N,unconnected-(U1-GPIO11-Pad15)_1*%
X142240000Y-83820000D03*
%TO.P,U1,16,GPIO12*%
%TO.N,/PTMR*%
X144780000Y-83820000D03*
%TO.P,U1,17,GPIO13*%
%TO.N,/PRMT*%
X147320000Y-83820000D03*
D17*
%TO.P,U1,18,GND*%
%TO.N,unconnected-(U1-GND-Pad18)_1*%
X149860000Y-83820000D03*
D16*
%TO.P,U1,19,GPIO14*%
%TO.N,unconnected-(U1-GPIO14-Pad19)_1*%
X152400000Y-83820000D03*
%TO.P,U1,20,GPIO15*%
%TO.N,unconnected-(U1-GPIO15-Pad20)_1*%
X154940000Y-83820000D03*
%TO.P,U1,21,GPIO16*%
%TO.N,unconnected-(U1-GPIO16-Pad21)*%
X154940000Y-66040000D03*
%TO.P,U1,22,GPIO17*%
%TO.N,unconnected-(U1-GPIO17-Pad22)_1*%
X152400000Y-66040000D03*
D17*
%TO.P,U1,23,GND*%
%TO.N,unconnected-(U1-GND-Pad23)_1*%
X149860000Y-66040000D03*
D16*
%TO.P,U1,24,GPIO18*%
%TO.N,unconnected-(U1-GPIO18-Pad24)*%
X147320000Y-66040000D03*
%TO.P,U1,25,GPIO19*%
%TO.N,unconnected-(U1-GPIO19-Pad25)_1*%
X144780000Y-66040000D03*
%TO.P,U1,26,GPIO20*%
%TO.N,unconnected-(U1-GPIO20-Pad26)*%
X142240000Y-66040000D03*
%TO.P,U1,27,GPIO21*%
%TO.N,/O_SPK*%
X139700000Y-66040000D03*
D17*
%TO.P,U1,28,GND*%
%TO.N,unconnected-(U1-GND-Pad28)_1*%
X137160000Y-66040000D03*
D16*
%TO.P,U1,29,GPIO22*%
%TO.N,/READY_LED*%
X134620000Y-66040000D03*
%TO.P,U1,30,RUN*%
%TO.N,/RESET_SW*%
X132080000Y-66040000D03*
%TO.P,U1,31,GPIO26_ADC0*%
%TO.N,unconnected-(U1-GPIO26_ADC0-Pad31)_1*%
X129540000Y-66040000D03*
%TO.P,U1,32,GPIO27_ADC1*%
%TO.N,unconnected-(U1-GPIO27_ADC1-Pad32)*%
X127000000Y-66040000D03*
D17*
%TO.P,U1,33,AGND*%
%TO.N,unconnected-(U1-AGND-Pad33)_1*%
X124460000Y-66040000D03*
D16*
%TO.P,U1,34,GPIO28_ADC2*%
%TO.N,unconnected-(U1-GPIO28_ADC2-Pad34)*%
X121920000Y-66040000D03*
%TO.P,U1,35,ADC_VREF*%
%TO.N,unconnected-(U1-ADC_VREF-Pad35)_1*%
X119380000Y-66040000D03*
%TO.P,U1,36,3V3*%
%TO.N,unconnected-(U1-3V3-Pad36)*%
X116840000Y-66040000D03*
%TO.P,U1,37,3V3_EN*%
%TO.N,unconnected-(U1-3V3_EN-Pad37)_1*%
X114300000Y-66040000D03*
D17*
%TO.P,U1,38,GND*%
%TO.N,/GND*%
X111760000Y-66040000D03*
D16*
%TO.P,U1,39,VSYS*%
%TO.N,unconnected-(U1-VSYS-Pad39)_1*%
X109220000Y-66040000D03*
%TO.P,U1,40,VBUS*%
%TO.N,/5V*%
X106680000Y-66040000D03*
%TO.P,U1,41,SWCLK*%
%TO.N,unconnected-(U1-SWCLK-Pad41)_1*%
X154710000Y-77470000D03*
D17*
%TO.P,U1,42,GND*%
%TO.N,unconnected-(U1-GND-Pad42)_1*%
X154710000Y-74930000D03*
D16*
%TO.P,U1,43,SWDIO*%
%TO.N,unconnected-(U1-SWDIO-Pad43)_1*%
X154710000Y-72390000D03*
%TD*%
D18*
%TO.P,J1,1,Pin_1*%
%TO.N,/GND*%
X190500000Y-106640000D03*
D19*
%TO.P,J1,2,Pin_2*%
%TO.N,/5V*%
X190500000Y-104140000D03*
%TO.P,J1,3,Pin_3*%
%TO.N,/PTMR*%
X190500000Y-101640000D03*
%TO.P,J1,4,Pin_4*%
%TO.N,/PRMT*%
X190500000Y-99140000D03*
%TD*%
D20*
%TO.N,/RESET_SW*%
X151130000Y-96520000D03*
%TO.N,/O_SPK*%
X172720000Y-92710000D03*
%TO.N,/READY_LED*%
X162560000Y-96520000D03*
%TO.N,Net-(PAM1-in+)*%
X172720000Y-100330000D03*
%TD*%
D21*
%TO.N,/RESET_SW*%
X133350000Y-81280000D02*
X132080000Y-80010000D01*
X132080000Y-80010000D02*
X132080000Y-66040000D01*
X151130000Y-96520000D02*
X151130000Y-82550000D01*
X149860000Y-81280000D02*
X133350000Y-81280000D01*
X151130000Y-82550000D02*
X149860000Y-81280000D01*
%TO.N,/O_SPK*%
X160020000Y-71120000D02*
X158750000Y-69850000D01*
X171450000Y-91440000D02*
X163830000Y-91440000D01*
X139700000Y-68580000D02*
X139700000Y-66040000D01*
X163830000Y-91440000D02*
X160020000Y-87630000D01*
X158750000Y-69850000D02*
X140970000Y-69850000D01*
X172720000Y-92710000D02*
X171450000Y-91440000D01*
X160020000Y-87630000D02*
X160020000Y-71120000D01*
X140970000Y-69850000D02*
X139700000Y-68580000D01*
%TO.N,/5V*%
X129540000Y-120650000D02*
X140970000Y-120650000D01*
X128270000Y-119380000D02*
X129540000Y-120650000D01*
X162520000Y-116840000D02*
X167640000Y-116840000D01*
X168910000Y-118110000D02*
X168910000Y-119380000D01*
X121880000Y-113070000D02*
X123190000Y-111760000D01*
X162520000Y-118070000D02*
X162520000Y-116840000D01*
X106680000Y-66040000D02*
X106680000Y-68580000D01*
X182880000Y-119380000D02*
X182880000Y-118110000D01*
X142240000Y-118110000D02*
X142200000Y-118070000D01*
X170180000Y-120650000D02*
X181610000Y-120650000D01*
X140970000Y-120650000D02*
X142240000Y-119380000D01*
X123190000Y-71120000D02*
X121920000Y-69850000D01*
X124460000Y-106680000D02*
X123190000Y-105410000D01*
X127000000Y-110490000D02*
X127000000Y-106680000D01*
X127000000Y-116840000D02*
X128270000Y-118110000D01*
X142200000Y-118070000D02*
X142200000Y-116840000D01*
X142240000Y-119380000D02*
X142240000Y-118110000D01*
X182840000Y-116840000D02*
X182840000Y-105450000D01*
X148590000Y-119380000D02*
X149860000Y-120650000D01*
X182840000Y-118070000D02*
X182840000Y-116840000D01*
X125730000Y-111760000D02*
X127000000Y-110490000D01*
X123190000Y-111760000D02*
X125730000Y-111760000D01*
X148590000Y-118110000D02*
X148590000Y-119380000D01*
X106680000Y-68580000D02*
X107950000Y-69850000D01*
X184150000Y-104140000D02*
X190500000Y-104140000D01*
X121880000Y-116840000D02*
X127000000Y-116840000D01*
X182840000Y-105450000D02*
X184150000Y-104140000D01*
X123190000Y-105410000D02*
X123190000Y-71120000D01*
X128270000Y-118110000D02*
X128270000Y-119380000D01*
X142200000Y-116840000D02*
X147320000Y-116840000D01*
X121920000Y-69850000D02*
X107950000Y-69850000D01*
X147320000Y-116840000D02*
X148590000Y-118110000D01*
X168910000Y-119380000D02*
X170180000Y-120650000D01*
X161290000Y-120650000D02*
X162560000Y-119380000D01*
X162560000Y-119380000D02*
X162560000Y-118110000D01*
X167640000Y-116840000D02*
X168910000Y-118110000D01*
X181610000Y-120650000D02*
X182880000Y-119380000D01*
X127000000Y-106680000D02*
X124460000Y-106680000D01*
X182880000Y-118110000D02*
X182840000Y-118070000D01*
X162560000Y-118110000D02*
X162520000Y-118070000D01*
X149860000Y-120650000D02*
X161290000Y-120650000D01*
X121880000Y-116840000D02*
X121880000Y-113070000D01*
%TO.N,/READY_LED*%
X154940000Y-91440000D02*
X153670000Y-90170000D01*
X153670000Y-90170000D02*
X153670000Y-80923654D01*
X135780000Y-79900000D02*
X134620000Y-78740000D01*
X134620000Y-78740000D02*
X134620000Y-66040000D01*
X152646346Y-79900000D02*
X135780000Y-79900000D01*
X162560000Y-96520000D02*
X162560000Y-92710000D01*
X162560000Y-92710000D02*
X161290000Y-91440000D01*
X161290000Y-91440000D02*
X154940000Y-91440000D01*
X153670000Y-80923654D02*
X152646346Y-79900000D01*
%TO.N,/SPK-*%
X109220000Y-101640000D02*
X116800000Y-101640000D01*
X118310000Y-100130000D02*
X119600000Y-100130000D01*
X116800000Y-101640000D02*
X118310000Y-100130000D01*
%TO.N,Net-(PAM1-in+)*%
X171450000Y-101600000D02*
X127000000Y-101600000D01*
X172720000Y-100330000D02*
X171450000Y-101600000D01*
%TO.N,/SPK+*%
X118330000Y-105630000D02*
X119600000Y-105630000D01*
X116840000Y-104140000D02*
X118330000Y-105630000D01*
X109220000Y-104140000D02*
X116840000Y-104140000D01*
%TD*%
M02*
