M48
; DRILL file {KiCad 8.0.5} date 2025-02-28T15:21:35+0900
; FORMAT={-:-/ absolute / metric / decimal}
; #@! TF.CreationDate,2025-02-28T15:21:35+09:00
; #@! TF.GenerationSoftware,Kicad,Pcbnew,8.0.5
; #@! TF.FileFunction,MixedPlating,1,2
FMAT,2
METRIC
; #@! TA.AperFunction,Plated,PTH,ViaDrill
T1C0.300
; #@! TA.AperFunction,Plated,PTH,ComponentDrill
T2C0.950
; #@! TA.AperFunction,Plated,PTH,ComponentDrill
T3C1.000
; #@! TA.AperFunction,Plated,PTH,ComponentDrill
T4C1.020
; #@! TA.AperFunction,NonPlated,NPTH,ComponentDrill
T5C1.500
; #@! TA.AperFunction,NonPlated,NPTH,ComponentDrill
T6C1.800
%
G90
G05
T1
X151.13Y-96.52
X162.56Y-96.52
X172.72Y-92.71
X172.72Y-100.33
T2
X114.38Y-116.84
X116.88Y-116.84
X119.38Y-116.84
X121.88Y-116.84
X134.7Y-116.84
X137.2Y-116.84
X139.7Y-116.84
X142.2Y-116.84
X155.02Y-116.84
X157.52Y-116.84
X160.02Y-116.84
X162.52Y-116.84
X175.34Y-116.84
X177.84Y-116.84
X180.34Y-116.84
X182.84Y-116.84
X190.5Y-99.14
X190.5Y-101.64
X190.5Y-104.14
X190.5Y-106.64
T3
X109.22Y-101.64
X109.22Y-104.14
T4
X106.68Y-66.04
X106.68Y-83.82
X109.22Y-66.04
X109.22Y-83.82
X111.76Y-66.04
X111.76Y-83.82
X114.3Y-66.04
X114.3Y-83.82
X116.84Y-66.04
X116.84Y-83.82
X119.38Y-66.04
X119.38Y-83.82
X121.92Y-66.04
X121.92Y-83.82
X124.46Y-66.04
X124.46Y-83.82
X127.0Y-66.04
X127.0Y-83.82
X129.54Y-66.04
X129.54Y-83.82
X132.08Y-66.04
X132.08Y-83.82
X134.62Y-66.04
X134.62Y-83.82
X137.16Y-66.04
X137.16Y-83.82
X139.7Y-66.04
X139.7Y-83.82
X142.24Y-66.04
X142.24Y-83.82
X144.78Y-66.04
X144.78Y-83.82
X147.32Y-66.04
X147.32Y-83.82
X149.86Y-66.04
X149.86Y-83.82
X152.4Y-66.04
X152.4Y-83.82
X154.71Y-72.39
X154.71Y-74.93
X154.71Y-77.47
X154.94Y-66.04
X154.94Y-83.82
T5
X109.84Y-72.505
X109.84Y-77.355
T6
X106.81Y-72.205
X106.81Y-77.655
T3
G00X119.6Y-101.28
M15
G01X119.6Y-98.98
M16
G05
G00X119.6Y-106.78
M15
G01X119.6Y-104.48
M16
G05
G00X127.35Y-99.06
M15
G01X126.65Y-99.06
M16
G05
G00X127.35Y-101.6
M15
G01X126.65Y-101.6
M16
G05
G00X127.35Y-104.14
M15
G01X126.65Y-104.14
M16
G05
G00X127.35Y-106.68
M15
G01X126.65Y-106.68
M16
G05
M30
