%TF.GenerationSoftware,KiCad,Pcbnew,8.0.5*%
%TF.CreationDate,2025-02-28T15:20:49+09:00*%
%TF.ProjectId,PCB_Sim,5043425f-5369-46d2-9e6b-696361645f70,rev?*%
%TF.SameCoordinates,Original*%
%TF.FileFunction,Soldermask,Bot*%
%TF.FilePolarity,Negative*%
%FSLAX46Y46*%
G04 Gerber Fmt 4.6, Leading zero omitted, Abs format (unit mm)*
G04 Created by KiCad (PCBNEW 8.0.5) date 2025-02-28 15:20:49*
%MOMM*%
%LPD*%
G01*
G04 APERTURE LIST*
G04 Aperture macros list*
%AMRoundRect*
0 Rectangle with rounded corners*
0 $1 Rounding radius*
0 $2 $3 $4 $5 $6 $7 $8 $9 X,Y pos of 4 corners*
0 Add a 4 corners polygon primitive as box body*
4,1,4,$2,$3,$4,$5,$6,$7,$8,$9,$2,$3,0*
0 Add four circle primitives for the rounded corners*
1,1,$1+$1,$2,$3*
1,1,$1+$1,$4,$5*
1,1,$1+$1,$6,$7*
1,1,$1+$1,$8,$9*
0 Add four rect primitives between the rounded corners*
20,1,$1+$1,$2,$3,$4,$5,0*
20,1,$1+$1,$4,$5,$6,$7,0*
20,1,$1+$1,$6,$7,$8,$9,0*
20,1,$1+$1,$8,$9,$2,$3,0*%
G04 Aperture macros list end*
%ADD10RoundRect,0.250000X-0.600000X-0.725000X0.600000X-0.725000X0.600000X0.725000X-0.600000X0.725000X0*%
%ADD11O,1.700000X1.950000*%
%ADD12RoundRect,0.250000X-0.750000X0.600000X-0.750000X-0.600000X0.750000X-0.600000X0.750000X0.600000X0*%
%ADD13O,2.000000X1.700000*%
%ADD14RoundRect,0.328084X1.171916X0.671916X-1.171916X0.671916X-1.171916X-0.671916X1.171916X-0.671916X0*%
%ADD15RoundRect,0.328084X0.671916X1.921916X-0.671916X1.921916X-0.671916X-1.921916X0.671916X-1.921916X0*%
%ADD16O,1.800000X1.800000*%
%ADD17O,1.500000X1.500000*%
%ADD18O,1.700000X1.700000*%
%ADD19R,1.700000X1.700000*%
%ADD20RoundRect,0.250000X0.725000X-0.600000X0.725000X0.600000X-0.725000X0.600000X-0.725000X-0.600000X0*%
%ADD21O,1.950000X1.700000*%
G04 APERTURE END LIST*
D10*
%TO.C,J3*%
X134700000Y-116840000D03*
D11*
X137200000Y-116840000D03*
X139700000Y-116840000D03*
X142200000Y-116840000D03*
%TD*%
D12*
%TO.C,J6*%
X109220000Y-101640000D03*
D13*
X109220000Y-104140000D03*
%TD*%
D14*
%TO.C,PAM1*%
X127000000Y-106680000D03*
X127000000Y-104140000D03*
X127000000Y-101600000D03*
X127000000Y-99060000D03*
D15*
X119600000Y-105630000D03*
X119600000Y-100130000D03*
%TD*%
D10*
%TO.C,J5*%
X175340000Y-116840000D03*
D11*
X177840000Y-116840000D03*
X180340000Y-116840000D03*
X182840000Y-116840000D03*
%TD*%
D10*
%TO.C,J2*%
X114380000Y-116840000D03*
D11*
X116880000Y-116840000D03*
X119380000Y-116840000D03*
X121880000Y-116840000D03*
%TD*%
D10*
%TO.C,J4*%
X155020000Y-116840000D03*
D11*
X157520000Y-116840000D03*
X160020000Y-116840000D03*
X162520000Y-116840000D03*
%TD*%
D16*
%TO.C,U1*%
X106810000Y-77655000D03*
D17*
X109840000Y-77355000D03*
X109840000Y-72505000D03*
D16*
X106810000Y-72205000D03*
D18*
X106680000Y-83820000D03*
X109220000Y-83820000D03*
D19*
X111760000Y-83820000D03*
D18*
X114300000Y-83820000D03*
X116840000Y-83820000D03*
X119380000Y-83820000D03*
X121920000Y-83820000D03*
D19*
X124460000Y-83820000D03*
D18*
X127000000Y-83820000D03*
X129540000Y-83820000D03*
X132080000Y-83820000D03*
X134620000Y-83820000D03*
D19*
X137160000Y-83820000D03*
D18*
X139700000Y-83820000D03*
X142240000Y-83820000D03*
X144780000Y-83820000D03*
X147320000Y-83820000D03*
D19*
X149860000Y-83820000D03*
D18*
X152400000Y-83820000D03*
X154940000Y-83820000D03*
X154940000Y-66040000D03*
X152400000Y-66040000D03*
D19*
X149860000Y-66040000D03*
D18*
X147320000Y-66040000D03*
X144780000Y-66040000D03*
X142240000Y-66040000D03*
X139700000Y-66040000D03*
D19*
X137160000Y-66040000D03*
D18*
X134620000Y-66040000D03*
X132080000Y-66040000D03*
X129540000Y-66040000D03*
X127000000Y-66040000D03*
D19*
X124460000Y-66040000D03*
D18*
X121920000Y-66040000D03*
X119380000Y-66040000D03*
X116840000Y-66040000D03*
X114300000Y-66040000D03*
D19*
X111760000Y-66040000D03*
D18*
X109220000Y-66040000D03*
X106680000Y-66040000D03*
X154710000Y-77470000D03*
D19*
X154710000Y-74930000D03*
D18*
X154710000Y-72390000D03*
%TD*%
D20*
%TO.C,J1*%
X190500000Y-106640000D03*
D21*
X190500000Y-104140000D03*
X190500000Y-101640000D03*
X190500000Y-99140000D03*
%TD*%
M02*
