%TF.GenerationSoftware,KiCad,Pcbnew,8.0.5*%
%TF.CreationDate,2025-02-28T15:26:59+09:00*%
%TF.ProjectId,PCB_HX711,5043425f-4858-4373-9131-2e6b69636164,rev?*%
%TF.SameCoordinates,Original*%
%TF.FileFunction,Copper,L1,Top*%
%TF.FilePolarity,Positive*%
%FSLAX46Y46*%
G04 Gerber Fmt 4.6, Leading zero omitted, Abs format (unit mm)*
G04 Created by KiCad (PCBNEW 8.0.5) date 2025-02-28 15:26:59*
%MOMM*%
%LPD*%
G01*
G04 APERTURE LIST*
G04 Aperture macros list*
%AMRoundRect*
0 Rectangle with rounded corners*
0 $1 Rounding radius*
0 $2 $3 $4 $5 $6 $7 $8 $9 X,Y pos of 4 corners*
0 Add a 4 corners polygon primitive as box body*
4,1,4,$2,$3,$4,$5,$6,$7,$8,$9,$2,$3,0*
0 Add four circle primitives for the rounded corners*
1,1,$1+$1,$2,$3*
1,1,$1+$1,$4,$5*
1,1,$1+$1,$6,$7*
1,1,$1+$1,$8,$9*
0 Add four rect primitives between the rounded corners*
20,1,$1+$1,$2,$3,$4,$5,0*
20,1,$1+$1,$4,$5,$6,$7,0*
20,1,$1+$1,$6,$7,$8,$9,0*
20,1,$1+$1,$8,$9,$2,$3,0*%
G04 Aperture macros list end*
%TA.AperFunction,ComponentPad*%
%ADD10R,1.700000X1.700000*%
%TD*%
%TA.AperFunction,ComponentPad*%
%ADD11O,1.700000X1.700000*%
%TD*%
%TA.AperFunction,ComponentPad*%
%ADD12O,1.700000X1.950000*%
%TD*%
%TA.AperFunction,ComponentPad*%
%ADD13RoundRect,0.425000X-0.425000X-0.550000X0.425000X-0.550000X0.425000X0.550000X-0.425000X0.550000X0*%
%TD*%
%TA.AperFunction,Conductor*%
%ADD14C,0.200000*%
%TD*%
G04 APERTURE END LIST*
D10*
%TO.P,J1,1,Pin_1*%
%TO.N,/GND*%
X130450000Y-79340000D03*
D11*
%TO.P,J1,2,Pin_2*%
%TO.N,unconnected-(J1-Pin_2-Pad2)*%
X127910000Y-79340000D03*
%TO.P,J1,3,Pin_3*%
%TO.N,unconnected-(J1-Pin_3-Pad3)*%
X125370000Y-79340000D03*
%TO.P,J1,4,Pin_4*%
%TO.N,/CLK*%
X122830000Y-79340000D03*
%TO.P,J1,5,Pin_5*%
%TO.N,/DAT*%
X120290000Y-79340000D03*
%TO.P,J1,6,Pin_6*%
%TO.N,/VDD*%
X117750000Y-79340000D03*
%TD*%
D12*
%TO.P,J2,1,Pin_1*%
%TO.N,/VDD*%
X120350000Y-87990000D03*
%TO.P,J2,2,Pin_2*%
%TO.N,/DAT*%
X122850000Y-87990000D03*
%TO.P,J2,3,Pin_3*%
%TO.N,/CLK*%
X125350000Y-87990000D03*
D13*
%TO.P,J2,4,Pin_4*%
%TO.N,/GND*%
X127850000Y-87990000D03*
%TD*%
D14*
%TO.N,/VDD*%
X117750000Y-79340000D02*
X117750000Y-80920000D01*
X120350000Y-83520000D02*
X120350000Y-87990000D01*
X117750000Y-80920000D02*
X120350000Y-83520000D01*
%TO.N,/DAT*%
X120290000Y-79340000D02*
X120290000Y-80920000D01*
X120290000Y-80920000D02*
X122850000Y-83480000D01*
X122850000Y-83480000D02*
X122850000Y-87990000D01*
%TO.N,/CLK*%
X122830000Y-80920000D02*
X125350000Y-83440000D01*
X122830000Y-79340000D02*
X122830000Y-80920000D01*
X125350000Y-83440000D02*
X125350000Y-87990000D01*
%TO.N,/GND*%
X130450000Y-79340000D02*
X130450000Y-80370000D01*
%TD*%
%TA.AperFunction,Conductor*%
%TO.N,/GND*%
G36*
X141543039Y-52009685D02*
G01*
X141588794Y-52062489D01*
X141600000Y-52114000D01*
X141600000Y-53575500D01*
X141580315Y-53642539D01*
X141527511Y-53688294D01*
X141476000Y-53699500D01*
X141456321Y-53699500D01*
X141171642Y-53738629D01*
X141171635Y-53738630D01*
X140963861Y-53796845D01*
X140894942Y-53816156D01*
X140894939Y-53816156D01*
X140894936Y-53816158D01*
X140894935Y-53816158D01*
X140631382Y-53930634D01*
X140385853Y-54079944D01*
X140162950Y-54261289D01*
X139966812Y-54471299D01*
X139801098Y-54706064D01*
X139668894Y-54961206D01*
X139572667Y-55231962D01*
X139572666Y-55231965D01*
X139514201Y-55513319D01*
X139494592Y-55800000D01*
X139514201Y-56086680D01*
X139572666Y-56368034D01*
X139572667Y-56368037D01*
X139668894Y-56638793D01*
X139668893Y-56638793D01*
X139801098Y-56893935D01*
X139966812Y-57128700D01*
X140051923Y-57219831D01*
X140162947Y-57338708D01*
X140385853Y-57520055D01*
X140631382Y-57669365D01*
X140818237Y-57750526D01*
X140894942Y-57783844D01*
X141171642Y-57861371D01*
X141421920Y-57895771D01*
X141456321Y-57900500D01*
X141476000Y-57900500D01*
X141543039Y-57920185D01*
X141588794Y-57972989D01*
X141600000Y-58024500D01*
X141600000Y-88575500D01*
X141580315Y-88642539D01*
X141527511Y-88688294D01*
X141476000Y-88699500D01*
X141456321Y-88699500D01*
X141171642Y-88738629D01*
X141171635Y-88738630D01*
X140963861Y-88796845D01*
X140894942Y-88816156D01*
X140894939Y-88816156D01*
X140894936Y-88816158D01*
X140894935Y-88816158D01*
X140631382Y-88930634D01*
X140385853Y-89079944D01*
X140162950Y-89261289D01*
X140162947Y-89261291D01*
X140162947Y-89261292D01*
X140154767Y-89270051D01*
X139966812Y-89471299D01*
X139801098Y-89706064D01*
X139668894Y-89961206D01*
X139572667Y-90231962D01*
X139572666Y-90231965D01*
X139514201Y-90513319D01*
X139494592Y-90800000D01*
X139514201Y-91086680D01*
X139572666Y-91368034D01*
X139572667Y-91368037D01*
X139668894Y-91638793D01*
X139668893Y-91638793D01*
X139801098Y-91893935D01*
X139966812Y-92128700D01*
X140051923Y-92219831D01*
X140162947Y-92338708D01*
X140385853Y-92520055D01*
X140631382Y-92669365D01*
X140818237Y-92750526D01*
X140894942Y-92783844D01*
X141171642Y-92861371D01*
X141421920Y-92895771D01*
X141456321Y-92900500D01*
X141476000Y-92900500D01*
X141543039Y-92920185D01*
X141588794Y-92972989D01*
X141600000Y-93024500D01*
X141600000Y-94486000D01*
X141580315Y-94553039D01*
X141527511Y-94598794D01*
X141476000Y-94610000D01*
X106724000Y-94610000D01*
X106656961Y-94590315D01*
X106611206Y-94537511D01*
X106600000Y-94486000D01*
X106600000Y-93024500D01*
X106619685Y-92957461D01*
X106672489Y-92911706D01*
X106724000Y-92900500D01*
X106743679Y-92900500D01*
X106774370Y-92896281D01*
X107028358Y-92861371D01*
X107305058Y-92783844D01*
X107418015Y-92734779D01*
X107568617Y-92669365D01*
X107568620Y-92669363D01*
X107568625Y-92669361D01*
X107814147Y-92520055D01*
X108037053Y-92338708D01*
X108233189Y-92128698D01*
X108398901Y-91893936D01*
X108531104Y-91638797D01*
X108627334Y-91368032D01*
X108685798Y-91086686D01*
X108705408Y-90800000D01*
X108685798Y-90513314D01*
X108627334Y-90231968D01*
X108531105Y-89961206D01*
X108531106Y-89961206D01*
X108398901Y-89706064D01*
X108233187Y-89471299D01*
X108135362Y-89366555D01*
X108037053Y-89261292D01*
X107814147Y-89079945D01*
X107814146Y-89079944D01*
X107568617Y-88930634D01*
X107305063Y-88816158D01*
X107305061Y-88816157D01*
X107305058Y-88816156D01*
X107175578Y-88779877D01*
X107028364Y-88738630D01*
X107028359Y-88738629D01*
X107028358Y-88738629D01*
X106886018Y-88719064D01*
X106743679Y-88699500D01*
X106743678Y-88699500D01*
X106724000Y-88699500D01*
X106656961Y-88679815D01*
X106611206Y-88627011D01*
X106600000Y-88575500D01*
X106600000Y-79339999D01*
X116394341Y-79339999D01*
X116394341Y-79340000D01*
X116414936Y-79575403D01*
X116414938Y-79575413D01*
X116476094Y-79803655D01*
X116476096Y-79803659D01*
X116476097Y-79803663D01*
X116556004Y-79975023D01*
X116575965Y-80017830D01*
X116575967Y-80017834D01*
X116684281Y-80172521D01*
X116711505Y-80211401D01*
X116878599Y-80378495D01*
X116955135Y-80432086D01*
X117072165Y-80514032D01*
X117072167Y-80514033D01*
X117072170Y-80514035D01*
X117077898Y-80516706D01*
X117130339Y-80562872D01*
X117149500Y-80629090D01*
X117149500Y-80833330D01*
X117149499Y-80833348D01*
X117149499Y-80999054D01*
X117149498Y-80999054D01*
X117190423Y-81151785D01*
X117219358Y-81201900D01*
X117219359Y-81201904D01*
X117219360Y-81201904D01*
X117269479Y-81288714D01*
X117269481Y-81288717D01*
X117388349Y-81407585D01*
X117388355Y-81407590D01*
X119713181Y-83732416D01*
X119746666Y-83793739D01*
X119749500Y-83820097D01*
X119749500Y-86579281D01*
X119729815Y-86646320D01*
X119681795Y-86689765D01*
X119642185Y-86709947D01*
X119642184Y-86709948D01*
X119470213Y-86834890D01*
X119319890Y-86985213D01*
X119194951Y-87157179D01*
X119098444Y-87346585D01*
X119032753Y-87548760D01*
X119023069Y-87609905D01*
X118999500Y-87758713D01*
X118999500Y-88221287D01*
X119032754Y-88431243D01*
X119096363Y-88627011D01*
X119098444Y-88633414D01*
X119194951Y-88822820D01*
X119319890Y-88994786D01*
X119470213Y-89145109D01*
X119642179Y-89270048D01*
X119642181Y-89270049D01*
X119642184Y-89270051D01*
X119831588Y-89366557D01*
X120033757Y-89432246D01*
X120243713Y-89465500D01*
X120243714Y-89465500D01*
X120456286Y-89465500D01*
X120456287Y-89465500D01*
X120666243Y-89432246D01*
X120868412Y-89366557D01*
X121057816Y-89270051D01*
X121157434Y-89197675D01*
X121229786Y-89145109D01*
X121229788Y-89145106D01*
X121229792Y-89145104D01*
X121380104Y-88994792D01*
X121499683Y-88830204D01*
X121555011Y-88787540D01*
X121624624Y-88781561D01*
X121686420Y-88814166D01*
X121700313Y-88830199D01*
X121787009Y-88949526D01*
X121819896Y-88994792D01*
X121970213Y-89145109D01*
X122142179Y-89270048D01*
X122142181Y-89270049D01*
X122142184Y-89270051D01*
X122331588Y-89366557D01*
X122533757Y-89432246D01*
X122743713Y-89465500D01*
X122743714Y-89465500D01*
X122956286Y-89465500D01*
X122956287Y-89465500D01*
X123166243Y-89432246D01*
X123368412Y-89366557D01*
X123557816Y-89270051D01*
X123657434Y-89197675D01*
X123729786Y-89145109D01*
X123729788Y-89145106D01*
X123729792Y-89145104D01*
X123880104Y-88994792D01*
X123999683Y-88830204D01*
X124055011Y-88787540D01*
X124124624Y-88781561D01*
X124186420Y-88814166D01*
X124200313Y-88830199D01*
X124287009Y-88949526D01*
X124319896Y-88994792D01*
X124470213Y-89145109D01*
X124642179Y-89270048D01*
X124642181Y-89270049D01*
X124642184Y-89270051D01*
X124831588Y-89366557D01*
X125033757Y-89432246D01*
X125243713Y-89465500D01*
X125243714Y-89465500D01*
X125456286Y-89465500D01*
X125456287Y-89465500D01*
X125666243Y-89432246D01*
X125868412Y-89366557D01*
X126057816Y-89270051D01*
X126157434Y-89197675D01*
X126229786Y-89145109D01*
X126229788Y-89145106D01*
X126229792Y-89145104D01*
X126380104Y-88994792D01*
X126401334Y-88965570D01*
X126456662Y-88922903D01*
X126526276Y-88916922D01*
X126588072Y-88949526D01*
X126612139Y-88982158D01*
X126644957Y-89046567D01*
X126767324Y-89197675D01*
X126918432Y-89320042D01*
X127091684Y-89408317D01*
X127279502Y-89458644D01*
X127360256Y-89464999D01*
X127360270Y-89465000D01*
X127600000Y-89465000D01*
X127600000Y-88394145D01*
X127666657Y-88432630D01*
X127787465Y-88465000D01*
X127912535Y-88465000D01*
X128033343Y-88432630D01*
X128100000Y-88394145D01*
X128100000Y-89465000D01*
X128339730Y-89465000D01*
X128339743Y-89464999D01*
X128420497Y-89458644D01*
X128608315Y-89408317D01*
X128781567Y-89320042D01*
X128932675Y-89197675D01*
X129055042Y-89046567D01*
X129143317Y-88873315D01*
X129193644Y-88685497D01*
X129199999Y-88604743D01*
X129200000Y-88604730D01*
X129200000Y-88240000D01*
X128254146Y-88240000D01*
X128292630Y-88173343D01*
X128325000Y-88052535D01*
X128325000Y-87927465D01*
X128292630Y-87806657D01*
X128254146Y-87740000D01*
X129200000Y-87740000D01*
X129200000Y-87375269D01*
X129199999Y-87375256D01*
X129193644Y-87294502D01*
X129143317Y-87106684D01*
X129055042Y-86933432D01*
X128932675Y-86782324D01*
X128781567Y-86659957D01*
X128608315Y-86571682D01*
X128420497Y-86521355D01*
X128339743Y-86515000D01*
X128100000Y-86515000D01*
X128100000Y-87585854D01*
X128033343Y-87547370D01*
X127912535Y-87515000D01*
X127787465Y-87515000D01*
X127666657Y-87547370D01*
X127600000Y-87585854D01*
X127600000Y-86515000D01*
X127360256Y-86515000D01*
X127279502Y-86521355D01*
X127091684Y-86571682D01*
X126918432Y-86659957D01*
X126767324Y-86782324D01*
X126644956Y-86933433D01*
X126644955Y-86933435D01*
X126612138Y-86997842D01*
X126564163Y-87048637D01*
X126496342Y-87065432D01*
X126430208Y-87042894D01*
X126401335Y-87014430D01*
X126380107Y-86985211D01*
X126229786Y-86834890D01*
X126057815Y-86709948D01*
X126057814Y-86709947D01*
X126018205Y-86689765D01*
X125967409Y-86641791D01*
X125950500Y-86579281D01*
X125950500Y-83360945D01*
X125950500Y-83360943D01*
X125909577Y-83208216D01*
X125909577Y-83208215D01*
X125909577Y-83208214D01*
X125876708Y-83151284D01*
X125853614Y-83111284D01*
X125830520Y-83071284D01*
X125718716Y-82959480D01*
X125718715Y-82959479D01*
X125714385Y-82955149D01*
X125714374Y-82955139D01*
X123473085Y-80713850D01*
X123439600Y-80652527D01*
X123444584Y-80582835D01*
X123486456Y-80526902D01*
X123503217Y-80516866D01*
X123503144Y-80516740D01*
X123507823Y-80514037D01*
X123507830Y-80514035D01*
X123701401Y-80378495D01*
X123868495Y-80211401D01*
X123998425Y-80025842D01*
X124053002Y-79982217D01*
X124122500Y-79975023D01*
X124184855Y-80006546D01*
X124201575Y-80025842D01*
X124331500Y-80211395D01*
X124331505Y-80211401D01*
X124498599Y-80378495D01*
X124575135Y-80432086D01*
X124692165Y-80514032D01*
X124692167Y-80514033D01*
X124692170Y-80514035D01*
X124906337Y-80613903D01*
X125134592Y-80675063D01*
X125305319Y-80690000D01*
X125369999Y-80695659D01*
X125370000Y-80695659D01*
X125370001Y-80695659D01*
X125434681Y-80690000D01*
X125605408Y-80675063D01*
X125833663Y-80613903D01*
X126047830Y-80514035D01*
X126241401Y-80378495D01*
X126408495Y-80211401D01*
X126538425Y-80025842D01*
X126593002Y-79982217D01*
X126662500Y-79975023D01*
X126724855Y-80006546D01*
X126741575Y-80025842D01*
X126871500Y-80211395D01*
X126871505Y-80211401D01*
X127038599Y-80378495D01*
X127115135Y-80432086D01*
X127232165Y-80514032D01*
X127232167Y-80514033D01*
X127232170Y-80514035D01*
X127446337Y-80613903D01*
X127674592Y-80675063D01*
X127845319Y-80690000D01*
X127909999Y-80695659D01*
X127910000Y-80695659D01*
X127910001Y-80695659D01*
X127974681Y-80690000D01*
X128145408Y-80675063D01*
X128373663Y-80613903D01*
X128587830Y-80514035D01*
X128781401Y-80378495D01*
X128903717Y-80256178D01*
X128965036Y-80222696D01*
X129034728Y-80227680D01*
X129090662Y-80269551D01*
X129107577Y-80300528D01*
X129156646Y-80432088D01*
X129156649Y-80432093D01*
X129242809Y-80547187D01*
X129242812Y-80547190D01*
X129357906Y-80633350D01*
X129357913Y-80633354D01*
X129492620Y-80683596D01*
X129492627Y-80683598D01*
X129552155Y-80689999D01*
X129552172Y-80690000D01*
X130200000Y-80690000D01*
X130200000Y-79773012D01*
X130257007Y-79805925D01*
X130384174Y-79840000D01*
X130515826Y-79840000D01*
X130642993Y-79805925D01*
X130700000Y-79773012D01*
X130700000Y-80690000D01*
X131347828Y-80690000D01*
X131347844Y-80689999D01*
X131407372Y-80683598D01*
X131407379Y-80683596D01*
X131542086Y-80633354D01*
X131542093Y-80633350D01*
X131657187Y-80547190D01*
X131657190Y-80547187D01*
X131743350Y-80432093D01*
X131743354Y-80432086D01*
X131793596Y-80297379D01*
X131793598Y-80297372D01*
X131799999Y-80237844D01*
X131800000Y-80237827D01*
X131800000Y-79590000D01*
X130883012Y-79590000D01*
X130915925Y-79532993D01*
X130950000Y-79405826D01*
X130950000Y-79274174D01*
X130915925Y-79147007D01*
X130883012Y-79090000D01*
X131800000Y-79090000D01*
X131800000Y-78442172D01*
X131799999Y-78442155D01*
X131793598Y-78382627D01*
X131793596Y-78382620D01*
X131743354Y-78247913D01*
X131743350Y-78247906D01*
X131657190Y-78132812D01*
X131657187Y-78132809D01*
X131542093Y-78046649D01*
X131542086Y-78046645D01*
X131407379Y-77996403D01*
X131407372Y-77996401D01*
X131347844Y-77990000D01*
X130700000Y-77990000D01*
X130700000Y-78906988D01*
X130642993Y-78874075D01*
X130515826Y-78840000D01*
X130384174Y-78840000D01*
X130257007Y-78874075D01*
X130200000Y-78906988D01*
X130200000Y-77990000D01*
X129552155Y-77990000D01*
X129492627Y-77996401D01*
X129492620Y-77996403D01*
X129357913Y-78046645D01*
X129357906Y-78046649D01*
X129242812Y-78132809D01*
X129242809Y-78132812D01*
X129156649Y-78247906D01*
X129156645Y-78247913D01*
X129107578Y-78379470D01*
X129065707Y-78435404D01*
X129000242Y-78459821D01*
X128931969Y-78444969D01*
X128903715Y-78423819D01*
X128859366Y-78379470D01*
X128781401Y-78301505D01*
X128781397Y-78301502D01*
X128781396Y-78301501D01*
X128587834Y-78165967D01*
X128587830Y-78165965D01*
X128516727Y-78132809D01*
X128373663Y-78066097D01*
X128373659Y-78066096D01*
X128373655Y-78066094D01*
X128145413Y-78004938D01*
X128145403Y-78004936D01*
X127910001Y-77984341D01*
X127909999Y-77984341D01*
X127674596Y-78004936D01*
X127674586Y-78004938D01*
X127446344Y-78066094D01*
X127446335Y-78066098D01*
X127232171Y-78165964D01*
X127232169Y-78165965D01*
X127038597Y-78301505D01*
X126871505Y-78468597D01*
X126741575Y-78654158D01*
X126686998Y-78697783D01*
X126617500Y-78704977D01*
X126555145Y-78673454D01*
X126538425Y-78654158D01*
X126408494Y-78468597D01*
X126241402Y-78301506D01*
X126241395Y-78301501D01*
X126047834Y-78165967D01*
X126047830Y-78165965D01*
X125976727Y-78132809D01*
X125833663Y-78066097D01*
X125833659Y-78066096D01*
X125833655Y-78066094D01*
X125605413Y-78004938D01*
X125605403Y-78004936D01*
X125370001Y-77984341D01*
X125369999Y-77984341D01*
X125134596Y-78004936D01*
X125134586Y-78004938D01*
X124906344Y-78066094D01*
X124906335Y-78066098D01*
X124692171Y-78165964D01*
X124692169Y-78165965D01*
X124498597Y-78301505D01*
X124331505Y-78468597D01*
X124201575Y-78654158D01*
X124146998Y-78697783D01*
X124077500Y-78704977D01*
X124015145Y-78673454D01*
X123998425Y-78654158D01*
X123868494Y-78468597D01*
X123701402Y-78301506D01*
X123701395Y-78301501D01*
X123507834Y-78165967D01*
X123507830Y-78165965D01*
X123436727Y-78132809D01*
X123293663Y-78066097D01*
X123293659Y-78066096D01*
X123293655Y-78066094D01*
X123065413Y-78004938D01*
X123065403Y-78004936D01*
X122830001Y-77984341D01*
X122829999Y-77984341D01*
X122594596Y-78004936D01*
X122594586Y-78004938D01*
X122366344Y-78066094D01*
X122366335Y-78066098D01*
X122152171Y-78165964D01*
X122152169Y-78165965D01*
X121958597Y-78301505D01*
X121791505Y-78468597D01*
X121661575Y-78654158D01*
X121606998Y-78697783D01*
X121537500Y-78704977D01*
X121475145Y-78673454D01*
X121458425Y-78654158D01*
X121328494Y-78468597D01*
X121161402Y-78301506D01*
X121161395Y-78301501D01*
X120967834Y-78165967D01*
X120967830Y-78165965D01*
X120896727Y-78132809D01*
X120753663Y-78066097D01*
X120753659Y-78066096D01*
X120753655Y-78066094D01*
X120525413Y-78004938D01*
X120525403Y-78004936D01*
X120290001Y-77984341D01*
X120289999Y-77984341D01*
X120054596Y-78004936D01*
X120054586Y-78004938D01*
X119826344Y-78066094D01*
X119826335Y-78066098D01*
X119612171Y-78165964D01*
X119612169Y-78165965D01*
X119418597Y-78301505D01*
X119251505Y-78468597D01*
X119121575Y-78654158D01*
X119066998Y-78697783D01*
X118997500Y-78704977D01*
X118935145Y-78673454D01*
X118918425Y-78654158D01*
X118788494Y-78468597D01*
X118621402Y-78301506D01*
X118621395Y-78301501D01*
X118427834Y-78165967D01*
X118427830Y-78165965D01*
X118356727Y-78132809D01*
X118213663Y-78066097D01*
X118213659Y-78066096D01*
X118213655Y-78066094D01*
X117985413Y-78004938D01*
X117985403Y-78004936D01*
X117750001Y-77984341D01*
X117749999Y-77984341D01*
X117514596Y-78004936D01*
X117514586Y-78004938D01*
X117286344Y-78066094D01*
X117286335Y-78066098D01*
X117072171Y-78165964D01*
X117072169Y-78165965D01*
X116878597Y-78301505D01*
X116711505Y-78468597D01*
X116575965Y-78662169D01*
X116575964Y-78662171D01*
X116476098Y-78876335D01*
X116476094Y-78876344D01*
X116414938Y-79104586D01*
X116414936Y-79104596D01*
X116394341Y-79339999D01*
X106600000Y-79339999D01*
X106600000Y-58024500D01*
X106619685Y-57957461D01*
X106672489Y-57911706D01*
X106724000Y-57900500D01*
X106743679Y-57900500D01*
X106774370Y-57896281D01*
X107028358Y-57861371D01*
X107305058Y-57783844D01*
X107418015Y-57734779D01*
X107568617Y-57669365D01*
X107568620Y-57669363D01*
X107568625Y-57669361D01*
X107814147Y-57520055D01*
X108037053Y-57338708D01*
X108233189Y-57128698D01*
X108398901Y-56893936D01*
X108531104Y-56638797D01*
X108627334Y-56368032D01*
X108685798Y-56086686D01*
X108705408Y-55800000D01*
X108685798Y-55513314D01*
X108627334Y-55231968D01*
X108531105Y-54961206D01*
X108531106Y-54961206D01*
X108398901Y-54706064D01*
X108233187Y-54471299D01*
X108154554Y-54387105D01*
X108037053Y-54261292D01*
X107814147Y-54079945D01*
X107814146Y-54079944D01*
X107568617Y-53930634D01*
X107305063Y-53816158D01*
X107305061Y-53816157D01*
X107305058Y-53816156D01*
X107175578Y-53779877D01*
X107028364Y-53738630D01*
X107028359Y-53738629D01*
X107028358Y-53738629D01*
X106886018Y-53719064D01*
X106743679Y-53699500D01*
X106743678Y-53699500D01*
X106724000Y-53699500D01*
X106656961Y-53679815D01*
X106611206Y-53627011D01*
X106600000Y-53575500D01*
X106600000Y-52114000D01*
X106619685Y-52046961D01*
X106672489Y-52001206D01*
X106724000Y-51990000D01*
X141476000Y-51990000D01*
X141543039Y-52009685D01*
G37*
%TD.AperFunction*%
%TD*%
M02*
