%TF.GenerationSoftware,KiCad,Pcbnew,8.0.5*%
%TF.CreationDate,2025-02-28T15:26:59+09:00*%
%TF.ProjectId,PCB_HX711,5043425f-4858-4373-9131-2e6b69636164,rev?*%
%TF.SameCoordinates,Original*%
%TF.FileFunction,Profile,NP*%
%FSLAX46Y46*%
G04 Gerber Fmt 4.6, Leading zero omitted, Abs format (unit mm)*
G04 Created by KiCad (PCBNEW 8.0.5) date 2025-02-28 15:26:59*
%MOMM*%
%LPD*%
G01*
G04 APERTURE LIST*
%TA.AperFunction,Profile*%
%ADD10C,0.100000*%
%TD*%
G04 APERTURE END LIST*
D10*
X93700000Y-65800000D02*
G75*
G02*
X89500000Y-65800000I-2100000J0D01*
G01*
X89500000Y-65800000D02*
G75*
G02*
X93700000Y-65800000I2100000J0D01*
G01*
X108200000Y-90800000D02*
G75*
G02*
X105000000Y-90800000I-1600000J0D01*
G01*
X105000000Y-90800000D02*
G75*
G02*
X108200000Y-90800000I1600000J0D01*
G01*
X101600000Y-50800000D02*
X146600000Y-50800000D01*
X158700000Y-65800000D02*
G75*
G02*
X154500000Y-65800000I-2100000J0D01*
G01*
X154500000Y-65800000D02*
G75*
G02*
X158700000Y-65800000I2100000J0D01*
G01*
X86600000Y-50800000D02*
X101600000Y-50800000D01*
X161600000Y-80800000D02*
X146600000Y-80800000D01*
X161600000Y-50800000D02*
X161600000Y-80800000D01*
X101600000Y-80800000D02*
X86600000Y-80800000D01*
X146600000Y-50800000D02*
X161600000Y-50800000D01*
X143200000Y-90800000D02*
G75*
G02*
X140000000Y-90800000I-1600000J0D01*
G01*
X140000000Y-90800000D02*
G75*
G02*
X143200000Y-90800000I1600000J0D01*
G01*
X146600000Y-80800000D02*
X146600000Y-95800000D01*
X86600000Y-50800000D02*
X86600000Y-80800000D01*
X108200000Y-55800000D02*
G75*
G02*
X105000000Y-55800000I-1600000J0D01*
G01*
X105000000Y-55800000D02*
G75*
G02*
X108200000Y-55800000I1600000J0D01*
G01*
X143200000Y-55800000D02*
G75*
G02*
X140000000Y-55800000I-1600000J0D01*
G01*
X140000000Y-55800000D02*
G75*
G02*
X143200000Y-55800000I1600000J0D01*
G01*
X146600000Y-95800000D02*
X101600000Y-95800000D01*
X101600000Y-95800000D02*
X101600000Y-80800000D01*
M02*
